<?xml version="1.0" encoding="us-ascii" standalone="no"?><svg xmlns="http://www.w3.org/2000/svg" xmlns:xlink="http://www.w3.org/1999/xlink" contentStyleType="text/css" height="3450px" preserveAspectRatio="none" style="width:458px;height:3450px;background:#FFFFFF;" version="1.1" viewBox="0 0 458 3450" width="458px" zoomAndPan="magnify"><defs/><g><!--cluster University Cleaner Management System--><g id="cluster_University Cleaner Management System"><rect fill="none" height="3437" rx="2.5" ry="2.5" style="stroke:#181818;stroke-width:1.0;" width="329.86" x="123" y="7"/><text fill="#000000" font-family="sans-serif" font-size="14" font-weight="bold" lengthAdjust="spacing" textLength="314" x="130.93" y="21.9951">University Cleaner Management System</text></g><g id="elem_AE"><ellipse cx="287.4273" cy="416.0015" fill="#F1F1F1" rx="72.3073" ry="16.8615" style="stroke:#181818;stroke-width:0.5;"/><text fill="#000000" font-family="sans-serif" font-size="14" lengthAdjust="spacing" textLength="99" x="234.9273" y="419.749">Add Employee</text></g><g id="elem_UE"><ellipse cx="287.4251" cy="490.995" fill="#F1F1F1" rx="104.0751" ry="23.215" style="stroke:#181818;stroke-width:0.5;"/><text fill="#000000" font-family="sans-serif" font-size="14" lengthAdjust="spacing" textLength="173" x="200.9251" y="493.8417">Update Employee Details</text></g><g id="elem_VE"><ellipse cx="287.4335" cy="573.9987" fill="#F1F1F1" rx="109.5935" ry="24.3187" style="stroke:#181818;stroke-width:0.5;"/><text fill="#000000" font-family="sans-serif" font-size="14" lengthAdjust="spacing" textLength="185" x="194.9335" y="576.8454">View Employee Information</text></g><g id="elem_RE"><ellipse cx="287.4263" cy="60.9953" fill="#F1F1F1" rx="84.4263" ry="19.2853" style="stroke:#181818;stroke-width:0.5;"/><text fill="#000000" font-family="sans-serif" font-size="14" lengthAdjust="spacing" textLength="129" x="222.805" y="63.8839">Remove Employee</text></g><g id="elem_AR"><ellipse cx="287.4333" cy="129.9955" fill="#F1F1F1" rx="56.3333" ry="14.7455" style="stroke:#181818;stroke-width:0.5;"/><text fill="#000000" font-family="sans-serif" font-size="14" lengthAdjust="spacing" textLength="62" x="253.4333" y="133.7431">Add Role</text></g><g id="elem_UR"><ellipse cx="287.4344" cy="200.0049" fill="#F1F1F1" rx="87.4744" ry="19.8949" style="stroke:#181818;stroke-width:0.5;"/><text fill="#000000" font-family="sans-serif" font-size="14" lengthAdjust="spacing" textLength="136" x="219.4344" y="202.8516">Update Role Details</text></g><g id="elem_VR"><ellipse cx="287.4271" cy="275.9954" fill="#F1F1F1" rx="92.7771" ry="20.9554" style="stroke:#181818;stroke-width:0.5;"/><text fill="#000000" font-family="sans-serif" font-size="14" lengthAdjust="spacing" textLength="148" x="213.4271" y="278.8421">View Role Information</text></g><g id="elem_RR"><ellipse cx="287.4252" cy="347.999" fill="#F1F1F1" rx="69.6952" ry="16.339" style="stroke:#181818;stroke-width:0.5;"/><text fill="#000000" font-family="sans-serif" font-size="14" lengthAdjust="spacing" textLength="92" x="238.4252" y="351.7466">Remove Role</text></g><g id="elem_ACA"><ellipse cx="287.4291" cy="3161.0018" fill="#F1F1F1" rx="96.3591" ry="21.6718" style="stroke:#181818;stroke-width:0.5;"/><text fill="#000000" font-family="sans-serif" font-size="14" lengthAdjust="spacing" textLength="156" x="209.4291" y="3163.8485">Assign Cleaner to Area</text></g><g id="elem_ASC"><ellipse cx="287.4295" cy="3239.0019" fill="#F1F1F1" rx="95.9095" ry="21.5819" style="stroke:#181818;stroke-width:0.5;"/><text fill="#000000" font-family="sans-serif" font-size="14" lengthAdjust="spacing" textLength="155" x="209.9295" y="3241.8486">Assign Shift to Cleaner</text></g><g id="elem_VCS"><ellipse cx="287.4281" cy="3317.9996" fill="#F1F1F1" rx="102.2481" ry="22.8496" style="stroke:#181818;stroke-width:0.5;"/><text fill="#000000" font-family="sans-serif" font-size="14" lengthAdjust="spacing" textLength="169" x="202.9281" y="3320.8463">View Cleaner's Schedule</text></g><g id="elem_RCA"><ellipse cx="287.4302" cy="3402.002" fill="#F1F1F1" rx="116.5602" ry="25.712" style="stroke:#181818;stroke-width:0.5;"/><text fill="#000000" font-family="sans-serif" font-size="14" lengthAdjust="spacing" textLength="200" x="187.4302" y="3404.8487">Remove Cleaner Assignment</text></g><g id="elem_CS"><ellipse cx="287.43" cy="2569.004" fill="#F1F1F1" rx="65.42" ry="15.484" style="stroke:#181818;stroke-width:0.5;"/><text fill="#000000" font-family="sans-serif" font-size="14" lengthAdjust="spacing" textLength="80" x="244.43" y="2572.7516">Create Shift</text></g><g id="elem_US"><ellipse cx="287.4268" cy="2638.9974" fill="#F1F1F1" rx="87.0368" ry="19.8074" style="stroke:#181818;stroke-width:0.5;"/><text fill="#000000" font-family="sans-serif" font-size="14" lengthAdjust="spacing" textLength="135" x="219.9268" y="2641.844">Update Shift Details</text></g><g id="elem_VSS"><ellipse cx="287.4268" cy="2713.9974" fill="#F1F1F1" rx="87.0368" ry="19.8074" style="stroke:#181818;stroke-width:0.5;"/><text fill="#000000" font-family="sans-serif" font-size="14" lengthAdjust="spacing" textLength="135" x="219.9268" y="2716.844">View Shift Schedule</text></g><g id="elem_RS"><ellipse cx="287.4288" cy="2784.9958" fill="#F1F1F1" rx="69.3288" ry="16.2658" style="stroke:#181818;stroke-width:0.5;"/><text fill="#000000" font-family="sans-serif" font-size="14" lengthAdjust="spacing" textLength="91" x="238.9288" y="2788.7433">Remove Shift</text></g><g id="elem_ACA2"><ellipse cx="287.4279" cy="2854.9976" fill="#F1F1F1" rx="83.1379" ry="19.0276" style="stroke:#181818;stroke-width:0.5;"/><text fill="#000000" font-family="sans-serif" font-size="14" lengthAdjust="spacing" textLength="126" x="223.8814" y="2858.0294">Add Cleaning Area</text></g><g id="elem_UAD"><ellipse cx="287.4344" cy="2929.0049" fill="#F1F1F1" rx="87.4744" ry="19.8949" style="stroke:#181818;stroke-width:0.5;"/><text fill="#000000" font-family="sans-serif" font-size="14" lengthAdjust="spacing" textLength="136" x="219.4344" y="2931.8516">Update Area Details</text></g><g id="elem_VAI"><ellipse cx="287.4271" cy="3004.9954" fill="#F1F1F1" rx="92.7771" ry="20.9554" style="stroke:#181818;stroke-width:0.5;"/><text fill="#000000" font-family="sans-serif" font-size="14" lengthAdjust="spacing" textLength="148" x="213.4271" y="3007.8421">View Area Information</text></g><g id="elem_RCA2"><ellipse cx="287.4291" cy="3083.0018" fill="#F1F1F1" rx="96.3591" ry="21.6718" style="stroke:#181818;stroke-width:0.5;"/><text fill="#000000" font-family="sans-serif" font-size="14" lengthAdjust="spacing" textLength="156" x="209.4291" y="3085.8485">Remove Cleaning Area</text></g><g id="elem_AS"><ellipse cx="287.4258" cy="2187.0032" fill="#F1F1F1" rx="81.8658" ry="18.7732" style="stroke:#181818;stroke-width:0.5;"/><text fill="#000000" font-family="sans-serif" font-size="14" lengthAdjust="spacing" textLength="123" x="224.9405" y="2190.1763">Assign Supervisor</text></g><g id="elem_USD"><ellipse cx="287.4279" cy="2264.0036" fill="#F1F1F1" rx="106.3679" ry="23.6736" style="stroke:#181818;stroke-width:0.5;"/><text fill="#000000" font-family="sans-serif" font-size="14" lengthAdjust="spacing" textLength="178" x="198.4279" y="2266.8503">Update Supervisor Details</text></g><g id="elem_VSI"><ellipse cx="287.4279" cy="2347.0016" fill="#F1F1F1" rx="111.9079" ry="24.7816" style="stroke:#181818;stroke-width:0.5;"/><text fill="#000000" font-family="sans-serif" font-size="14" lengthAdjust="spacing" textLength="190" x="192.4279" y="2349.8483">View Supervisor Information</text></g><g id="elem_RS2"><ellipse cx="287.4298" cy="2427" fill="#F1F1F1" rx="86.5998" ry="19.72" style="stroke:#181818;stroke-width:0.5;"/><text fill="#000000" font-family="sans-serif" font-size="14" lengthAdjust="spacing" textLength="134" x="220.4298" y="2429.8466">Remove Supervisor</text></g><g id="elem_AD"><ellipse cx="287.4251" cy="2500.001" fill="#F1F1F1" rx="78.1551" ry="18.031" style="stroke:#181818;stroke-width:0.5;"/><text fill="#000000" font-family="sans-serif" font-size="14" lengthAdjust="spacing" textLength="114" x="228.0359" y="2503.5866">Add Department</text></g><g id="elem_UDD"><ellipse cx="287.4311" cy="657.9962" fill="#F1F1F1" rx="110.9811" ry="24.5962" style="stroke:#181818;stroke-width:0.5;"/><text fill="#000000" font-family="sans-serif" font-size="14" lengthAdjust="spacing" textLength="188" x="193.4311" y="660.8429">Update Department Details</text></g><g id="elem_VDI"><ellipse cx="287.4302" cy="743.002" fill="#F1F1F1" rx="116.5602" ry="25.712" style="stroke:#181818;stroke-width:0.5;"/><text fill="#000000" font-family="sans-serif" font-size="14" lengthAdjust="spacing" textLength="200" x="187.4302" y="745.8487">View Department Information</text></g><g id="elem_RD"><ellipse cx="287.4296" cy="823.9999" fill="#F1F1F1" rx="90.9996" ry="20.5999" style="stroke:#181818;stroke-width:0.5;"/><text fill="#000000" font-family="sans-serif" font-size="14" lengthAdjust="spacing" textLength="144" x="215.4296" y="826.8466">Remove Department</text></g><g id="elem_AT"><ellipse cx="287.4326" cy="895.0025" fill="#F1F1F1" rx="66.4626" ry="15.6925" style="stroke:#181818;stroke-width:0.5;"/><text fill="#000000" font-family="sans-serif" font-size="14" lengthAdjust="spacing" textLength="83" x="242.9326" y="898.7501">Assign Task</text></g><g id="elem_UTS"><ellipse cx="287.4268" cy="964.9974" fill="#F1F1F1" rx="87.0368" ry="19.8074" style="stroke:#181818;stroke-width:0.5;"/><text fill="#000000" font-family="sans-serif" font-size="14" lengthAdjust="spacing" textLength="135" x="219.9268" y="967.844">Update Task Status</text></g><g id="elem_VTD"><ellipse cx="287.4307" cy="1038.0021" fill="#F1F1F1" rx="80.6107" ry="18.5221" style="stroke:#181818;stroke-width:0.5;"/><text fill="#000000" font-family="sans-serif" font-size="14" lengthAdjust="spacing" textLength="120" x="225.9926" y="1041.3148">View Task Details</text></g><g id="elem_RT"><ellipse cx="287.4333" cy="1107.9967" fill="#F1F1F1" rx="70.4333" ry="16.4867" style="stroke:#181818;stroke-width:0.5;"/><text fill="#000000" font-family="sans-serif" font-size="14" lengthAdjust="spacing" textLength="94" x="237.4333" y="1111.7442">Remove Task</text></g><g id="elem_RA"><ellipse cx="287.4298" cy="1179" fill="#F1F1F1" rx="86.5998" ry="19.72" style="stroke:#181818;stroke-width:0.5;"/><text fill="#000000" font-family="sans-serif" font-size="14" lengthAdjust="spacing" textLength="134" x="220.4298" y="1181.8466">Record Attendance</text></g><g id="elem_UAR"><ellipse cx="287.4311" cy="1257.9962" fill="#F1F1F1" rx="110.9811" ry="24.5962" style="stroke:#181818;stroke-width:0.5;"/><text fill="#000000" font-family="sans-serif" font-size="14" lengthAdjust="spacing" textLength="188" x="193.4311" y="1260.8429">Update Attendance Record</text></g><g id="elem_VAR"><ellipse cx="287.4279" cy="1341.0036" fill="#F1F1F1" rx="106.3679" ry="23.6736" style="stroke:#181818;stroke-width:0.5;"/><text fill="#000000" font-family="sans-serif" font-size="14" lengthAdjust="spacing" textLength="178" x="198.4279" y="1343.8503">View Attendance Records</text></g><g id="elem_RAR"><ellipse cx="287.4303" cy="1424.9961" fill="#F1F1F1" rx="114.2303" ry="25.2461" style="stroke:#181818;stroke-width:0.5;"/><text fill="#000000" font-family="sans-serif" font-size="14" lengthAdjust="spacing" textLength="195" x="189.9303" y="1427.8427">Remove Attendance Record</text></g><g id="elem_SRC"><ellipse cx="287.4293" cy="1510.9959" fill="#F1F1F1" rx="118.4293" ry="26.0859" style="stroke:#181818;stroke-width:0.5;"/><text fill="#000000" font-family="sans-serif" font-size="14" lengthAdjust="spacing" textLength="204" x="185.4293" y="1513.8425">Submit Reimbursement Claim</text></g><g id="elem_SIR"><ellipse cx="287.4318" cy="1591.9964" fill="#F1F1F1" rx="89.2318" ry="20.2464" style="stroke:#181818;stroke-width:0.5;"/><text fill="#000000" font-family="sans-serif" font-size="14" lengthAdjust="spacing" textLength="140" x="217.4318" y="1594.843">Submit Issue Report</text></g><g id="elem_UCRS"><ellipse cx="287.4317" cy="1672.0043" fill="#F1F1F1" rx="112.3717" ry="24.8743" style="stroke:#181818;stroke-width:0.5;"/><text fill="#000000" font-family="sans-serif" font-size="14" lengthAdjust="spacing" textLength="191" x="191.9317" y="1674.851">Update Claim/Report Status</text></g><g id="elem_VCR"><ellipse cx="287.4328" cy="1752.0046" fill="#F1F1F1" rx="89.6728" ry="20.3346" style="stroke:#181818;stroke-width:0.5;"/><text fill="#000000" font-family="sans-serif" font-size="14" lengthAdjust="spacing" textLength="141" x="216.9328" y="1754.8512">View Claims/Reports</text></g><g id="elem_RCR"><ellipse cx="287.4293" cy="1828.0039" fill="#F1F1F1" rx="93.6693" ry="21.1339" style="stroke:#181818;stroke-width:0.5;"/><text fill="#000000" font-family="sans-serif" font-size="14" lengthAdjust="spacing" textLength="150" x="212.4293" y="1830.8505">Remove Claim/Report</text></g><g id="elem_AT2"><ellipse cx="287.4268" cy="1898.9997" fill="#F1F1F1" rx="55.5868" ry="14.7397" style="stroke:#181818;stroke-width:0.5;"/><text fill="#000000" font-family="sans-serif" font-size="14" lengthAdjust="spacing" textLength="61" x="253.9268" y="1902.7473">Add Tool</text></g><g id="elem_UTD"><ellipse cx="287.4268" cy="1968.9974" fill="#F1F1F1" rx="87.0368" ry="19.8074" style="stroke:#181818;stroke-width:0.5;"/><text fill="#000000" font-family="sans-serif" font-size="14" lengthAdjust="spacing" textLength="135" x="219.9268" y="1971.844">Update Tool Details</text></g><g id="elem_VTI"><ellipse cx="287.4318" cy="2044.9964" fill="#F1F1F1" rx="92.3318" ry="20.8664" style="stroke:#181818;stroke-width:0.5;"/><text fill="#000000" font-family="sans-serif" font-size="14" lengthAdjust="spacing" textLength="147" x="213.9318" y="2047.843">View Tool Information</text></g><g id="elem_RT2"><ellipse cx="287.4288" cy="2116.9958" fill="#F1F1F1" rx="69.3288" ry="16.2658" style="stroke:#181818;stroke-width:0.5;"/><text fill="#000000" font-family="sans-serif" font-size="14" lengthAdjust="spacing" textLength="91" x="238.9288" y="2120.7433">Remove Tool</text></g><!--entity Employee--><g id="elem_Employee"><ellipse cx="42.5" cy="282.35" fill="#F1F1F1" rx="8" ry="8" style="stroke:#181818;stroke-width:0.5;"/><path d="M42.5,290.35 L42.5,317.35 M29.5,298.35 L55.5,298.35 M42.5,317.35 L29.5,332.35 M42.5,317.35 L55.5,332.35 " fill="none" style="stroke:#181818;stroke-width:0.5;"/><text fill="#000000" font-family="sans-serif" font-size="14" lengthAdjust="spacing" textLength="68" x="8.5" y="346.8451">Employee</text></g><!--entity Supervisor--><g id="elem_Supervisor"><ellipse cx="42.5" cy="1562.35" fill="#F1F1F1" rx="8" ry="8" style="stroke:#181818;stroke-width:0.5;"/><path d="M42.5,1570.35 L42.5,1597.35 M29.5,1578.35 L55.5,1578.35 M42.5,1597.35 L29.5,1612.35 M42.5,1597.35 L55.5,1612.35 " fill="none" style="stroke:#181818;stroke-width:0.5;"/><text fill="#000000" font-family="sans-serif" font-size="14" lengthAdjust="spacing" textLength="73" x="6" y="1626.8451">Supervisor</text></g><!--entity Cleaner--><g id="elem_Cleaner"><ellipse cx="42.5" cy="2937.35" fill="#F1F1F1" rx="8" ry="8" style="stroke:#181818;stroke-width:0.5;"/><path d="M42.5,2945.35 L42.5,2972.35 M29.5,2953.35 L55.5,2953.35 M42.5,2972.35 L29.5,2987.35 M42.5,2972.35 L55.5,2987.35 " fill="none" style="stroke:#181818;stroke-width:0.5;"/><text fill="#000000" font-family="sans-serif" font-size="14" lengthAdjust="spacing" textLength="53" x="16" y="3001.8451">Cleaner</text></g><!--link Employee to AE--><g id="link_Employee_AE"><path d="M74.73,350.37 C86.22,362.19 100.1,374.14 115,382 C146.4,398.56 184.91,407.08 217.47,411.46 " fill="none" id="Employee-AE" style="stroke:#181818;stroke-width:1.0;"/></g><!--link Employee to UE--><g id="link_Employee_UE"><path d="M53.73,350.56 C64.05,381.97 83.12,425.06 115,450 C136.33,466.68 163.4,476.73 189.69,482.74 " fill="none" id="Employee-UE" style="stroke:#181818;stroke-width:1.0;"/></g><!--link Employee to VE--><g id="link_Employee_VE"><path d="M45.05,350.62 C49.17,399.9 63.79,484.45 115,532 C133.75,549.41 158.5,559.93 183.36,566.21 " fill="none" id="Employee-VE" style="stroke:#181818;stroke-width:1.0;"/></g><!--link Employee to RE--><g id="link_Employee_RE"><path d="M45.26,273.36 C49.62,225.05 64.52,143.21 115,98 C138.81,76.67 171.93,66.61 202.72,62.17 " fill="none" id="Employee-RE" style="stroke:#181818;stroke-width:1.0;"/></g><!--link Employee to AR--><g id="link_Employee_AR"><path d="M51.66,273.4 C61,239.05 79.78,190.15 115,163 C147.88,137.65 194.67,129.98 231.06,128.33 " fill="none" id="Employee-AR" style="stroke:#181818;stroke-width:1.0;"/></g><!--link Employee to UR--><g id="link_Employee_UR"><path d="M72.73,273.54 C84.52,260.46 99.1,246.9 115,238 C142.8,222.44 176.47,213.25 206.58,207.82 " fill="none" id="Employee-UR" style="stroke:#181818;stroke-width:1.0;"/></g><!--link Employee to VR--><g id="link_Employee_VR"><path d="M76.77,307.07 C110.62,302.05 164.3,294.1 208.87,287.49 " fill="none" id="Employee-VR" style="stroke:#181818;stroke-width:1.0;"/></g><!--link Employee to RR--><g id="link_Employee_RR"><path d="M76.77,316.93 C115.49,322.67 180.16,332.25 227.46,339.26 " fill="none" id="Employee-RR" style="stroke:#181818;stroke-width:1.0;"/></g><!--link Cleaner to ACA--><g id="link_Cleaner_ACA"><path d="M51.09,3005.47 C60.15,3041.04 78.86,3092.7 115,3122 C137.17,3139.97 166.01,3150.02 193.7,3155.53 " fill="none" id="Cleaner-ACA" style="stroke:#181818;stroke-width:1.0;"/></g><!--link Cleaner to ASC--><g id="link_Cleaner_ASC"><path d="M44.05,3005.31 C46.95,3057.16 60.12,3149.04 115,3200 C136.02,3219.52 164.72,3229.97 192.62,3235.37 " fill="none" id="Cleaner-ASC" style="stroke:#181818;stroke-width:1.0;"/></g><!--link Cleaner to VCS--><g id="link_Cleaner_VCS"><path d="M47.31,3005.62 C55.45,3080.14 76.96,3239.84 115,3278 C134.09,3297.16 160.47,3307.85 186.82,3313.64 " fill="none" id="Cleaner-VCS" style="stroke:#181818;stroke-width:1.0;"/></g><!--link Cleaner to RCA--><g id="link_Cleaner_RCA"><path d="M45.38,3005.37 C50.48,3093.57 67.54,3307.08 115,3358 C131.45,3375.65 153.92,3386.61 177.19,3393.32 " fill="none" id="Cleaner-RCA" style="stroke:#181818;stroke-width:1.0;"/></g><!--link Cleaner to CS--><g id="link_Cleaner_CS"><path d="M45.72,2928.47 C51.4,2844.23 69.32,2647.53 115,2602 C143.12,2573.97 187.35,2565.99 223.84,2564.87 " fill="none" id="Cleaner-CS" style="stroke:#181818;stroke-width:1.0;"/></g><!--link Cleaner to US--><g id="link_Cleaner_US"><path d="M47.96,2928.49 C56.92,2857.9 79.34,2711.83 115,2677 C137.57,2654.95 169.91,2644.52 200.44,2639.92 " fill="none" id="Cleaner-US" style="stroke:#181818;stroke-width:1.0;"/></g><!--link Cleaner to VSS--><g id="link_Cleaner_VSS"><path d="M45.11,2928.43 C49.3,2879.73 64.01,2796.8 115,2751 C138.22,2730.14 170.32,2720.06 200.48,2715.46 " fill="none" id="Cleaner-VSS" style="stroke:#181818;stroke-width:1.0;"/></g><!--link Cleaner to RS--><g id="link_Cleaner_RS"><path d="M51.66,2928.4 C61,2894.05 79.78,2845.15 115,2818 C144.04,2795.61 183.93,2787.01 217.92,2784.17 " fill="none" id="Cleaner-RS" style="stroke:#181818;stroke-width:1.0;"/></g><!--link Cleaner to ACA2--><g id="link_Cleaner_ACA2"><path d="M69.24,2931.86 C81.54,2917.44 97.42,2901.85 115,2892 C143.55,2876 178.35,2866.91 209.12,2861.75 " fill="none" id="Cleaner-ACA2" style="stroke:#181818;stroke-width:1.0;"/></g><!--link Cleaner to UAD--><g id="link_Cleaner_UAD"><path d="M69.5,2962.93 C103.77,2957.57 165.44,2947.93 214.28,2940.29 " fill="none" id="Cleaner-UAD" style="stroke:#181818;stroke-width:1.0;"/></g><!--link Cleaner to VAI--><g id="link_Cleaner_VAI"><path d="M69.5,2971.07 C102.79,2976.27 161.93,2985.53 210.06,2993.05 " fill="none" id="Cleaner-VAI" style="stroke:#181818;stroke-width:1.0;"/></g><!--link Cleaner to RCA2--><g id="link_Cleaner_RCA2"><path d="M69.23,3002.48 C81.53,3017.06 97.42,3032.87 115,3043 C140.95,3057.95 172.16,3067.31 200.79,3073.18 " fill="none" id="Cleaner-RCA2" style="stroke:#181818;stroke-width:1.0;"/></g><!--link Supervisor to AS--><g id="link_Supervisor_AS"><path d="M42.86,1630.31 C41.8,1743.8 44.9,2075.07 115,2151 C137.9,2175.8 173.17,2185.86 205.78,2189.31 " fill="none" id="Supervisor-AS" style="stroke:#181818;stroke-width:1.0;"/></g><!--link Supervisor to USD--><g id="link_Supervisor_USD"><path d="M45.32,1630.59 C51.82,1760.82 75.59,2178.47 115,2223 C132.34,2242.59 157.22,2253.67 182.67,2259.74 " fill="none" id="Supervisor-USD" style="stroke:#181818;stroke-width:1.0;"/></g><!--link Supervisor to VSI--><g id="link_Supervisor_VSI"><path d="M44.8,1630.6 C49.9,1771.66 70.49,2253.76 115,2305 C131.28,2323.74 154.42,2334.82 178.45,2341.22 " fill="none" id="Supervisor-VSI" style="stroke:#181818;stroke-width:1.0;"/></g><!--link Supervisor to RS2--><g id="link_Supervisor_RS2"><path d="M44.33,1630.41 C47.93,1781.76 64.44,2331.48 115,2389 C136.33,2413.27 169.39,2423.96 200.81,2428.15 " fill="none" id="Supervisor-RS2" style="stroke:#181818;stroke-width:1.0;"/></g><!--link Supervisor to AD--><g id="link_Supervisor_AD"><path d="M43.99,1630.44 C46.4,1790.76 59.2,2400.74 115,2464 C138.44,2490.57 176.04,2500.41 210.07,2503.25 " fill="none" id="Supervisor-AD" style="stroke:#181818;stroke-width:1.0;"/></g><!--link Supervisor to UDD--><g id="link_Supervisor_UDD"><path d="M43.97,1553.55 C46.33,1391.04 58.98,765.8 115,700 C131.19,680.98 154.44,669.82 178.63,663.43 " fill="none" id="Supervisor-UDD" style="stroke:#181818;stroke-width:1.0;"/></g><!--link Supervisor to VDI--><g id="link_Supervisor_VDI"><path d="M44.34,1553.46 C47.99,1400.92 64.68,844.92 115,786 C130.44,767.92 152.25,756.84 175.14,750.19 " fill="none" id="Supervisor-VDI" style="stroke:#181818;stroke-width:1.0;"/></g><!--link Supervisor to RD--><g id="link_Supervisor_RD"><path d="M44.67,1553.44 C49.35,1410.18 68.81,914.12 115,862 C135.32,839.07 166.11,828.29 196.01,823.65 " fill="none" id="Supervisor-RD" style="stroke:#181818;stroke-width:1.0;"/></g><!--link Supervisor to AT--><g id="link_Supervisor_AT"><path d="M45.01,1553.69 C50.65,1419.2 72.4,974.28 115,928 C142.09,898.56 186.82,890.71 223.8,890.01 " fill="none" id="Supervisor-AT" style="stroke:#181818;stroke-width:1.0;"/></g><!--link Supervisor to UTS--><g id="link_Supervisor_UTS"><path d="M45.59,1553.74 C52.71,1429.47 77.72,1042.88 115,1002 C136.54,978.38 169.25,967.91 200.35,963.78 " fill="none" id="Supervisor-UTS" style="stroke:#181818;stroke-width:1.0;"/></g><!--link Supervisor to VTD--><g id="link_Supervisor_VTD"><path d="M43.3,1553.43 C43.57,1445.45 50.22,1143.47 115,1074 C138.33,1048.98 174.26,1039 207.22,1035.67 " fill="none" id="Supervisor-VTD" style="stroke:#181818;stroke-width:1.0;"/></g><!--link Supervisor to RT--><g id="link_Supervisor_RT"><path d="M44.16,1553.57 C46.66,1455.7 58.57,1200.63 115,1142 C141.3,1114.67 182.79,1105.93 218.36,1104.13 " fill="none" id="Supervisor-RT" style="stroke:#181818;stroke-width:1.0;"/></g><!--link Supervisor to RA--><g id="link_Supervisor_RA"><path d="M45.57,1553.37 C50.97,1467.31 68.48,1263.68 115,1216 C137.22,1193.23 169.86,1182.88 200.72,1178.61 " fill="none" id="Supervisor-RA" style="stroke:#181818;stroke-width:1.0;"/></g><!--link Supervisor to UAR--><g id="link_Supervisor_UAR"><path d="M47.96,1553.57 C56.95,1482.73 79.48,1335.52 115,1300 C132.77,1282.23 156.74,1271.54 181.12,1265.21 " fill="none" id="Supervisor-UAR" style="stroke:#181818;stroke-width:1.0;"/></g><!--link Supervisor to VAR--><g id="link_Supervisor_VAR"><path d="M45.72,1553.41 C50.58,1506.07 66.02,1426.6 115,1382 C134.34,1364.38 159.89,1353.96 185.34,1347.89 " fill="none" id="Supervisor-VAR" style="stroke:#181818;stroke-width:1.0;"/></g><!--link Supervisor to RAR--><g id="link_Supervisor_RAR"><path d="M56.07,1553.6 C67.22,1525.51 86.25,1488.67 115,1467 C134.95,1451.97 159.57,1442.25 183.86,1435.99 " fill="none" id="Supervisor-RAR" style="stroke:#181818;stroke-width:1.0;"/></g><!--link Supervisor to SRC--><g id="link_Supervisor_SRC"><path d="M79.44,1570.71 C90.57,1564.72 103.06,1558.59 115,1554 C141.63,1543.76 171.54,1535.28 198.83,1528.64 " fill="none" id="Supervisor-SRC" style="stroke:#181818;stroke-width:1.0;"/></g><!--link Supervisor to SIR--><g id="link_Supervisor_SIR"><path d="M79.35,1592 C110.49,1592 156.92,1592 197.93,1592 " fill="none" id="Supervisor-SIR" style="stroke:#181818;stroke-width:1.0;"/></g><!--link Supervisor to UCRS--><g id="link_Supervisor_UCRS"><path d="M79.42,1613.33 C90.56,1619.32 103.05,1625.44 115,1630 C142.49,1640.48 173.46,1649.01 201.45,1655.57 " fill="none" id="Supervisor-UCRS" style="stroke:#181818;stroke-width:1.0;"/></g><!--link Supervisor to VCR--><g id="link_Supervisor_VCR"><path d="M56.52,1630.53 C67.77,1657.94 86.72,1693.41 115,1714 C139.64,1731.95 171.19,1741.67 200.49,1746.86 " fill="none" id="Supervisor-VCR" style="stroke:#181818;stroke-width:1.0;"/></g><!--link Supervisor to RCR--><g id="link_Supervisor_RCR"><path d="M46.54,1630.53 C52.22,1675.56 68.48,1749.1 115,1790 C136.86,1809.22 166.27,1819.39 194.55,1824.59 " fill="none" id="Supervisor-RCR" style="stroke:#181818;stroke-width:1.0;"/></g><!--link Supervisor to AT2--><g id="link_Supervisor_AT2"><path d="M48.4,1630.5 C57.82,1698.32 80.64,1834.96 115,1867 C146.44,1896.32 195.75,1902.96 233.43,1903.06 " fill="none" id="Supervisor-AT2" style="stroke:#181818;stroke-width:1.0;"/></g><!--link Supervisor to UTD--><g id="link_Supervisor_UTD"><path d="M46.45,1630.4 C53.35,1709.94 73.22,1888.78 115,1931 C137.2,1953.42 169.46,1963.93 200.03,1968.48 " fill="none" id="Supervisor-UTD" style="stroke:#181818;stroke-width:1.0;"/></g><!--link Supervisor to VTI--><g id="link_Supervisor_VTI"><path d="M44.86,1630.64 C48.91,1722.87 63.98,1952.22 115,2006 C135.69,2027.81 165.84,2038.61 195.1,2043.65 " fill="none" id="Supervisor-VTI" style="stroke:#181818;stroke-width:1.0;"/></g><!--link Supervisor to RT2--><g id="link_Supervisor_RT2"><path d="M43.59,1630.46 C44.66,1734.51 53.29,2018.05 115,2083 C141.54,2110.94 183.94,2119.52 219.93,2121.08 " fill="none" id="Supervisor-RT2" style="stroke:#181818;stroke-width:1.0;"/></g><!--SRC=[TPN1ZkCW38RlynIebpsDLkeRH4aFFUm5QEvCmhHear01wQhQbzy4A0NZFTR-iR_Qy6UItuuuJOowtXmPbP63Kthv48FJXfpc-wIVKiQVRBrByr1McnXe9oaMQJxsKsAvJf8SBejwI6ELUxwov9TOn5NESd64FQsJyu7y_I1ajN8GTZlIZ6FgT232akQKfo_tKJYP5AIJJgZ9UkMbKFPA_ddhpiktDhFO_uxNzeMMoba_PDcNdY0MrLD4eWZIdYrnQ8NZDHKAHL1IBrfa6slLTKd3t7RL62a2LDiWIdPJOQVnI92ojaAB-H-MiE4cnpMsxrk6qBtwXoRxCWDhYT1kQDjWF8BFbxNYt09XCJXMqGLHISOmidSpok3-FBLQhiNCZWZIdY-9cgv2yg9gbytvV-Cg6bFG-BMjzARYdh1v9GqOMesOIIjGXe62_fGTuGmxUHV6fOsNSuc4Rqr9sDM4cRGYx312q9zso1IviBy37KVezYnXJhWrOl7wkdbDpjxp3e59ZIWliuCs8scSayiebY4-v0QxQKb3mgbutMhhg9GHhC7S0ozBIorRlsRbDe6QlrPZWoUtar2pLpFQ8kgpjUjUzAvDs00xOsReo_mCicBOBMM8zMnY6zNnRxKKVKVlgl4PKNX1kTPJN3xsjFTqUIjvVIkzgBgF7BkFgHtrxTBtvlCpVBZom0K6UXYWCE0tLjI0WHu6_0VZPT1x2M_AUS2xVnO87fy5A3m21HVmEtXnNe5L44TGmbj7NiDRPqcndybCpCDNeU1yPIpOMnaBRWRArKU3JO5o7LAkbdc_0TLu3HpC15IhZth30DNyVG3La1X5Ok4zWzYvriKd2fgqI1Ca5XuT704oK8uCb1__0G00]--></g></svg>